<svg width="248" height="93" viewBox="0 0 248 93" fill="none" xmlns="http://www.w3.org/2000/svg">
<g clip-path="url(#clip0)">
<path d="M59.297 4.26055e-05C55.5947 0.0124077 51.2689 2.71445 49.0665 4.94293C45.357 8.69618 37.5563 22.0762 37.5563 22.0762L37.596 22.2239C36.2826 24.5737 34.8676 27.1774 33.3478 30.0432C31.793 32.9363 30.2598 35.868 28.7482 38.8383C27.2798 41.77 25.8761 44.605 24.5372 47.3438C24.3035 47.8378 24.0849 48.3075 23.8652 48.7789C22.9679 49.062 22.0122 49.3458 20.9868 49.6227C13.5264 51.6373 5.36389 51.1991 2.81859 50.148C0.273289 49.0969 -0.253471 49.7101 0.0976056 50.148C0.44868 50.586 3.78399 53.4766 5.62714 53.9146C6.99615 54.2399 14.3213 54.7567 21.8475 53.2432C21.6579 53.6788 21.4703 54.1109 21.298 54.5188L19.0308 59.9C18.8148 59.9 18.5772 59.8423 18.318 59.7266C18.0157 59.7652 17.7567 59.9386 17.5408 60.2472C17.3249 60.5172 17.1734 60.8644 17.087 61.2888C17.0007 61.6745 16.9794 62.0988 17.0225 62.5617C17.0657 62.986 17.1952 63.3332 17.4112 63.6032C16.1587 66.6121 14.971 69.4667 13.8481 72.167C12.682 74.9058 11.7101 77.3939 10.9327 79.6313C10.1553 81.9072 9.61569 83.8744 9.31338 85.5331C8.96787 87.2304 8.96787 88.5228 9.31338 89.41C9.74526 90.413 10.2203 91.2421 10.7385 91.8979C11.2568 92.5537 11.9045 92.9202 12.6819 92.9974C13.848 93.0359 15.079 92.6501 16.3746 91.84C17.6703 91.0299 18.9658 89.9499 20.2615 88.5998C21.5139 87.2497 22.7016 85.7068 23.8245 83.9709C24.9474 82.235 25.8977 80.4607 26.6751 78.6476C27.4957 76.8346 28.0786 75.0599 28.4241 73.324C28.8128 71.5882 28.8993 70.0453 28.6834 68.6951C28.4674 67.3064 28.0354 66.1684 27.3875 65.2812C26.7829 64.4326 25.984 63.7382 24.9907 63.1981L25.1851 62.9088C26.8695 62.6002 28.5322 62.099 30.1733 61.4046C31.8145 60.6717 33.5421 59.6107 35.356 58.222C36.1034 57.6631 36.8764 57.0353 37.6728 56.3452C37.4824 57.6677 37.4965 58.8918 37.7186 60.0159C37.9345 61.2503 38.3882 62.2919 39.0792 63.1405C39.7271 63.9506 40.7203 64.4906 42.0592 64.7606C43.398 64.9921 44.823 64.7219 46.3346 63.9504C47.8894 63.1403 49.4013 62.0797 50.8697 60.7682C52.3813 59.418 53.8063 57.9135 55.1451 56.2548C56.484 54.5575 57.6717 52.9182 58.7082 51.3366C58.9241 51.4137 59.1402 51.4328 59.3561 51.3942C59.572 51.3556 59.7881 51.3366 60.004 51.3366C61.1269 51.2209 62.2713 50.912 63.4374 50.4105C63.5796 50.3494 63.7211 50.2869 63.862 50.2229C63.4434 50.9737 63.068 51.7115 62.7386 52.4357C62.1771 53.6316 61.7883 54.7119 61.5724 55.6762C61.2701 57.2578 61.2484 58.7043 61.5076 60.0159C61.7235 61.2503 62.1772 62.2919 62.8682 63.1405C63.5161 63.9506 64.5093 64.4906 65.8482 64.7606C67.187 64.9921 68.612 64.7219 70.1236 63.9504C71.6784 63.1403 73.19 62.0797 74.6584 60.7682C76.1699 59.418 77.5953 57.9135 78.9341 56.2548C80.273 54.5575 81.4607 52.9182 82.4972 51.3366C82.7131 51.4137 82.9292 51.4328 83.1451 51.3942C83.361 51.3556 83.5771 51.3366 83.793 51.3366C84.9159 51.2209 86.0603 50.912 87.2264 50.4105C87.9675 50.0918 88.691 49.7341 89.3972 49.3375C89.0138 50.3089 88.683 51.2647 88.4062 52.2044C87.9311 53.6702 87.6288 55.0781 87.4993 56.4282C87.3697 57.7397 87.3914 58.9164 87.5641 59.9579C87.78 61.1538 88.1901 62.118 88.7948 62.8509C89.3994 63.5453 90.2203 63.9312 91.2568 64.0083C92.0342 64.0855 92.8763 63.8927 93.7833 63.4298C94.6903 62.9283 95.6186 62.2533 96.5688 61.4046C97.5189 60.556 98.4906 59.5914 99.4839 58.5113C100.477 57.3926 101.428 56.2546 102.335 55.0974C102.248 55.5217 102.183 55.9269 102.14 56.3127C102.097 56.6599 102.054 57.0264 102.01 57.4122C101.967 57.8365 101.946 58.3571 101.946 58.9743C101.989 59.5915 102.054 60.2279 102.14 60.8837C102.356 61.9638 102.723 62.9283 103.241 63.777C103.76 64.5871 104.58 65.0306 105.703 65.1078C106.351 65.1078 106.977 64.9921 107.582 64.7606C108.186 64.5677 108.748 64.3169 109.266 64.0083C109.828 63.6611 110.346 63.2946 110.821 62.9088C111.296 62.4845 111.706 62.0796 112.052 61.6939C114.314 59.4249 116.54 56.9084 118.729 54.1507C118.705 54.2544 118.68 54.3591 118.658 54.4609C118.356 55.8496 118.269 56.9683 118.399 57.8169C118.485 58.4341 118.615 59.1672 118.787 60.0159C118.96 60.8645 119.198 61.6747 119.5 62.4462C119.802 63.1791 120.191 63.7768 120.666 64.2397C121.141 64.7411 121.703 64.9533 122.35 64.8761C123.603 64.6832 124.618 64.3941 125.395 64.0083C126.216 63.6226 127.037 63.1596 127.857 62.6196C129.11 61.8095 130.384 60.7102 131.679 59.3215C133.018 57.8942 134.335 56.3126 135.631 54.5768C136.97 52.8409 138.266 51.0278 139.518 49.1376C139.853 48.6325 140.159 48.1655 140.488 47.6686C140.505 47.7348 140.522 47.7955 140.539 47.8648C140.626 48.1734 140.733 48.5399 140.863 48.9642C141.079 49.8514 140.863 50.777 140.215 51.7414C139.568 52.6672 138.833 53.593 138.013 54.5188C137.192 55.4446 136.479 56.3705 135.875 57.2963C135.313 58.1835 135.033 59.0901 135.033 60.0159C135.076 60.5945 135.227 61.1732 135.486 61.7518C135.702 62.3304 136.026 62.8511 136.458 63.314C136.933 63.7769 137.473 64.1434 138.078 64.4134C138.682 64.722 139.352 64.8761 140.086 64.8761C141.295 64.8761 142.656 64.5676 144.167 63.9504C145.679 63.2946 147.082 62.5038 148.378 61.578C149.458 60.6522 150.581 59.5916 151.747 58.3958C152.89 57.2653 154.033 56.0453 155.176 54.7424C155.066 55.3138 154.982 55.8761 154.929 56.4282C154.8 57.7397 154.821 58.9164 154.994 59.9579C155.21 61.1538 155.62 62.118 156.225 62.8509C156.786 63.5453 157.585 63.9312 158.622 64.0083C159.399 64.0855 160.241 63.8927 161.148 63.4298C162.098 62.9283 163.049 62.2533 163.999 61.4046C164.949 60.556 165.899 59.5914 166.849 58.5113C167.842 57.3926 168.793 56.2546 169.7 55.0974C169.613 55.5217 169.548 55.9269 169.505 56.3127C169.462 56.6599 169.419 57.0264 169.375 57.4122C169.332 57.7979 169.311 58.2605 169.311 58.8006C169.311 59.3406 169.354 59.9386 169.44 60.5944C169.613 61.5202 169.959 62.3303 170.477 63.0247C171.038 63.719 171.88 64.1046 173.003 64.1817C173.651 64.1817 174.256 64.0854 174.817 63.8925C175.422 63.661 175.983 63.3719 176.502 63.0247C177.02 62.6775 177.495 62.311 177.927 61.9252C178.359 61.5009 178.769 61.096 179.158 60.7102C181.112 58.7501 183.067 56.7013 185.022 54.571C185.022 54.8233 185.027 55.076 185.04 55.329C185.04 55.6762 185.061 56.0424 185.104 56.4282C185.148 56.7754 185.212 57.1036 185.299 57.4122C185.644 59.7267 186.465 61.501 187.761 62.7354C189.056 63.9698 190.633 64.6832 192.49 64.8761C193.656 64.9918 194.887 64.7797 196.182 64.2397C197.521 63.6996 198.86 62.9475 200.199 61.9831C201.538 60.9802 202.877 59.8422 204.215 58.5692C205.554 57.2577 206.85 55.8882 208.102 54.4609C208.551 53.9665 208.986 53.4724 209.414 52.978C209.193 53.8401 208.995 54.6819 208.821 55.5025C208.303 57.7398 208.001 59.6686 207.914 61.2888C207.914 61.8288 208.044 62.3304 208.303 62.7933C208.519 63.2562 208.821 63.6611 209.21 64.0083C209.598 64.3555 210.03 64.6257 210.506 64.8185C211.024 65.05 211.52 65.1657 211.995 65.1657C212.643 65.1657 213.205 64.9919 213.68 64.6448C214.155 64.3362 214.457 63.7575 214.587 62.9088H214.522C214.781 61.6744 215.062 60.4207 215.364 59.1477C215.666 57.8362 216.012 56.5054 216.401 55.1553C218.301 52.9179 220.072 50.8544 221.713 48.9642C223.397 47.0741 224.866 45.4731 226.118 44.1616C227.37 42.8114 228.385 41.8085 229.163 41.1527C229.983 40.497 230.502 40.2655 230.718 40.4584C230.761 40.8056 230.48 41.4613 229.876 42.4256C229.271 43.39 228.385 44.528 227.219 45.8396C226.053 47.1125 224.628 48.482 222.944 49.9479C221.259 51.4137 219.381 52.8409 217.307 54.2296C218.042 56.0812 218.776 57.6821 219.51 59.0322C220.244 60.3824 221.043 61.5204 221.907 62.4462C222.771 63.3334 223.721 63.9891 224.758 64.4134C225.794 64.8763 227.003 65.1078 228.385 65.1078C230.156 65.1078 231.776 64.6642 233.244 63.777C234.712 62.8898 236.073 61.7324 237.325 60.3051C238.578 58.8393 239.744 57.219 240.824 55.4446C241.946 53.6315 243.026 51.8185 244.063 50.0054C244.667 48.8868 245.272 47.7875 245.877 46.7074C246.524 45.6273 247.194 44.605 247.885 43.6406C248.058 43.3706 248.036 43.0427 247.82 42.657C247.647 42.2712 247.388 41.9434 247.043 41.6734C246.697 41.3648 246.33 41.172 245.941 41.0948C245.553 41.0177 245.272 41.1334 245.099 41.442C243.804 43.7179 242.335 45.9166 240.694 48.0382C239.053 50.1212 237.455 51.9923 235.9 53.651C234.345 55.3098 232.942 56.6789 231.689 57.759C230.437 58.8391 229.595 59.4952 229.163 59.7266C229.033 59.7266 228.796 59.6686 228.45 59.5528C228.105 59.4371 227.694 59.2056 227.219 58.8585C226.744 58.5113 226.226 58.0484 225.665 57.4697C225.103 56.8525 224.498 56.0427 223.85 55.0398C226.096 54.1911 228.105 53.0915 229.876 51.7414C231.689 50.3912 233.201 48.9641 234.41 47.4596C235.62 45.9552 236.505 44.4507 237.066 42.9463C237.671 41.4418 237.887 40.0917 237.714 38.8959C237.584 38.0087 237.196 37.2566 236.548 36.6394C235.9 35.9836 234.928 35.5593 233.633 35.3665C232.467 35.2122 231.279 35.3663 230.07 35.8291C228.86 36.292 227.651 36.9864 226.442 37.9122C225.233 38.7995 224.045 39.8411 222.879 41.0369C221.756 42.2327 220.676 43.4671 219.64 44.7401L220.028 43.7565C221.367 42.4449 222.792 41.0177 224.304 39.4747C225.815 37.9317 227.284 36.3308 228.709 34.6721C230.178 32.9748 231.56 31.2775 232.855 29.5802C234.151 27.8829 235.274 26.2242 236.224 24.6041C237.174 22.9839 237.887 21.4407 238.362 19.9748C238.88 18.509 239.075 17.1976 238.945 16.0403C238.859 15.6546 238.686 15.2497 238.427 14.8253C238.168 14.3624 237.865 13.9572 237.52 13.61C237.218 13.2628 236.893 12.993 236.548 12.8001C236.202 12.5687 235.878 12.453 235.576 12.453C234.065 12.6073 232.51 13.2436 230.912 14.3623C229.314 15.481 227.738 16.9468 226.183 18.7599C224.628 20.5729 223.095 22.6561 221.583 25.0092C220.115 27.3623 218.711 29.85 217.372 32.4731C216.077 35.0577 214.846 37.7196 213.68 40.4584C213.272 41.4388 212.885 42.4086 212.517 43.3686C212.364 43.5356 212.217 43.6989 212.054 43.8723C210.931 45.0681 209.679 46.3219 208.297 47.6334C206.915 48.945 205.446 50.2564 203.892 51.5679C202.337 52.8795 200.804 54.0752 199.292 55.1553C197.78 56.1968 196.333 57.084 194.951 57.8169C193.569 58.5113 192.338 58.9165 191.259 59.0322C190.913 59.0322 190.74 58.8391 190.74 58.4534V57.4122C190.697 56.6021 190.87 55.7146 191.259 54.7502C191.647 53.7472 192.144 52.725 192.749 51.6834C193.397 50.6419 194.109 49.62 194.887 48.617C195.664 47.6141 196.42 46.6689 197.154 45.7816L199.486 42.657C199.961 42.1941 200.458 41.7121 200.976 41.2107C201.494 40.6706 201.97 40.2077 202.402 39.8219C202.877 39.3976 203.265 39.0504 203.567 38.7804C203.913 38.5104 204.129 38.3946 204.215 38.4332C204.172 38.6646 204.021 38.9732 203.762 39.3589C203.546 39.7061 203.265 40.092 202.92 40.5163C202.618 40.9406 202.293 41.3649 201.948 41.7892C201.602 42.1749 201.3 42.5222 201.041 42.8308C200.695 43.3708 200.544 43.6406 200.588 43.6406C199.897 44.4121 199.81 45.0488 200.329 45.5503C200.847 46.0518 201.559 46.3023 202.466 46.3023C202.855 46.3023 203.265 46.2059 203.697 46.013C204.129 45.8201 204.453 45.608 204.669 45.3765C205.23 44.8365 205.77 44.2772 206.288 43.6985C206.85 43.1199 207.325 42.5029 207.714 41.8471C208.145 41.1913 208.469 40.4776 208.685 39.7061C208.901 38.9346 208.988 38.0861 208.945 37.1603V37.1024C208.772 35.9837 208.275 35.2123 207.455 34.7879C206.634 34.325 205.662 34.1319 204.539 34.2091C202.207 34.4019 199.832 35.135 197.413 36.408C195.038 37.681 192.9 39.3009 191 41.2683C190.62 41.6701 190.257 42.0832 189.909 42.5059C189.609 42.8051 189.299 43.1148 188.94 43.4672C188.119 44.3158 187.212 45.2607 186.219 46.3023C185.269 47.3438 184.276 48.4241 183.239 49.5428C182.202 50.6614 181.209 51.722 180.259 52.725C179.223 53.9208 178.251 55.0395 177.344 56.081C176.437 57.0839 175.854 57.9134 175.595 58.5692C175.681 58.1449 175.811 57.5662 175.983 56.8333C176.199 56.1004 176.459 55.2712 176.761 54.3454C177.322 52.8796 177.927 51.3557 178.575 49.7741C179.266 48.1539 179.913 46.6304 180.518 45.2031V45.261C180.907 44.3738 181.252 43.5443 181.555 42.7728C181.9 42.0013 182.159 41.3456 182.332 40.8056V40.8635C182.505 40.5163 182.397 40.1111 182.008 39.6482C181.62 39.1467 181.123 38.6838 180.518 38.2594C179.913 37.7965 179.287 37.4303 178.639 37.1603C178.035 36.8903 177.56 36.8129 177.214 36.9286C176.653 36.2728 176.048 35.7522 175.4 35.3665C174.752 34.9807 173.997 34.7492 173.133 34.6721C171.708 34.5564 170.326 34.7685 168.987 35.3085C167.691 35.81 166.482 36.4851 165.359 37.3337C164.279 38.1824 163.286 39.1276 162.379 40.1691C162.065 40.5301 161.775 40.8784 161.497 41.2208C161.413 41.2592 161.337 41.3121 161.27 41.3841L159.974 42.7728C157.685 45.3188 155.483 47.6912 153.366 49.8899C151.293 52.0501 149.026 54.133 146.564 56.1389C146.434 56.2546 146.262 56.3897 146.046 56.544C145.83 56.6983 145.657 56.8528 145.527 57.0071C145.009 57.4314 144.448 57.875 143.843 58.3379C143.239 58.8008 142.699 59.2827 142.224 59.7842L142.289 59.6687C142.72 59.0515 143.26 58.2994 143.908 57.4122C144.556 56.4864 145.16 55.5798 145.722 54.6926C146.283 53.7668 146.758 52.918 147.147 52.1465C147.536 51.3364 147.73 50.7194 147.73 50.295C147.644 49.2149 147.493 48.2697 147.277 47.4596C147.061 46.611 146.78 45.6851 146.434 44.6822L145.592 42.0785C146.283 41.3841 146.974 40.6704 147.665 39.9374C148.356 39.2045 148.94 38.4137 149.415 37.5651C149.933 36.6778 150.321 35.7523 150.58 34.7879C150.84 33.785 150.883 32.7047 150.71 31.5474C150.581 30.8145 150.364 30.1201 150.062 29.4643C149.803 28.8085 149.458 28.2492 149.026 27.7863C148.637 27.2848 148.162 26.8993 147.6 26.6293C147.039 26.3592 146.435 26.2435 145.787 26.2821C144.664 26.3207 143.692 26.6292 142.871 27.2078C142.051 27.7478 141.338 28.4036 140.734 29.1751C140.172 29.908 139.719 30.6988 139.373 31.5474C139.071 32.3575 138.855 33.0326 138.725 33.5726L138.661 33.5147C138.358 34.5176 138.207 35.752 138.207 37.2179C138.207 38.6837 138.337 40.0919 138.596 41.442C138.682 41.9821 138.79 42.522 138.92 43.0621C138.931 43.1078 138.944 43.1505 138.957 43.1952C138.657 43.5815 138.33 43.9959 137.963 44.4508C137.229 45.4152 136.408 46.4568 135.502 47.5755C134.595 48.6556 133.644 49.7742 132.651 50.9315C131.701 52.0887 130.772 53.1494 129.865 54.1137C129.736 54.3066 129.541 54.5381 129.282 54.8081C129.066 55.0396 128.872 55.271 128.699 55.5025C128.181 56.0811 127.619 56.6985 127.015 57.3542C126.41 57.9714 125.849 58.5501 125.331 59.0902C124.812 59.6302 124.38 60.0738 124.035 60.421C123.733 60.7296 123.581 60.8453 123.581 60.7682C123.538 60.6524 123.56 60.4593 123.646 60.1893C123.733 59.8807 123.84 59.4951 123.97 59.0322C124.1 58.6465 124.488 57.6819 125.136 56.1389C125.827 54.5959 126.604 52.8409 127.468 50.8736C128.202 49.2148 128.958 47.5369 129.736 45.8396C130.513 44.1037 131.226 42.4257 131.874 40.8056C132.91 38.3753 134.055 35.8485 135.307 33.2254C136.559 30.5638 137.747 28.0756 138.87 25.7611H142.239C143.362 25.7611 144.441 25.7421 145.478 25.7035C148.415 25.665 151.33 25.6456 154.224 25.6456C157.16 25.6071 159.86 25.5877 162.321 25.5877C164.826 25.5491 167.007 25.5104 168.864 25.4719C170.721 25.4333 172.104 25.3756 173.01 25.2984C173.572 25.067 173.68 24.7004 173.334 24.199C173.032 23.6589 172.471 23.0996 171.65 22.521C170.873 21.9423 169.966 21.4024 168.929 20.9009C167.936 20.3994 167.05 20.0906 166.273 19.9748C165.668 19.8977 164.934 19.84 164.071 19.8014C163.25 19.7628 162.321 19.7435 161.285 19.7435C159.946 19.7435 158.478 19.7822 156.88 19.8593C155.282 19.8979 153.619 19.9556 151.891 20.0328C150.207 20.1099 148.458 20.2256 146.644 20.3799C144.83 20.4957 143.059 20.6307 141.332 20.785C142.152 19.1263 142.627 18.1041 142.757 17.7183C142.886 17.294 142.886 16.7733 142.757 16.1561C142.671 15.5004 142.498 14.9024 142.239 14.3623C141.98 13.8223 141.677 13.398 141.332 13.0894C140.986 12.7808 140.662 12.7615 140.36 13.0315C139.885 13.4172 139.129 14.3625 138.093 15.8669C137.056 17.3713 135.847 19.2421 134.465 21.4794C132.565 21.6723 130.837 21.9038 129.282 22.1738C127.728 22.4052 126.453 22.6367 125.46 22.8682C125.071 22.9067 124.769 23.0802 124.553 23.3888C124.337 23.6974 124.186 24.0446 124.1 24.4303C124.056 24.7775 124.1 25.1053 124.229 25.4139C124.359 25.684 124.575 25.8191 124.877 25.8191H127.922C129.174 25.7805 130.492 25.7611 131.874 25.7611C130.794 27.6513 129.692 29.6381 128.57 31.7212C127.447 33.8042 126.346 35.9065 125.266 38.0281C124.714 39.1362 124.183 40.2325 123.668 41.3187C123.638 41.356 123.609 41.3962 123.583 41.442V41.3841C123.065 42.0013 122.331 42.8885 121.38 44.0457C120.473 45.203 119.437 46.4567 118.271 47.8068C117.148 49.157 115.982 50.5458 114.773 51.973C113.606 53.4003 112.505 54.7118 111.469 55.9076C110.432 57.0648 109.525 58.0291 108.748 58.8006C107.97 59.5721 107.474 59.9773 107.258 60.0159C107.344 59.9773 107.452 59.7845 107.582 59.4373C107.754 59.0516 107.927 58.5887 108.1 58.0486C108.316 57.47 108.532 56.8526 108.748 56.1968C108.964 55.5411 109.18 54.924 109.396 54.3454C109.871 52.8796 110.475 51.2593 111.21 49.4848C111.944 47.6718 112.678 45.9551 113.412 44.335L115.032 40.3425L118.465 33.5726L126.11 19.107C126.282 18.7213 126.196 18.2584 125.851 17.7183C125.548 17.1397 125.116 16.5997 124.555 16.0982C123.993 15.5967 123.389 15.2109 122.741 14.9408C122.093 14.6708 121.553 14.6325 121.121 14.8253C120.992 14.9796 120.711 15.4426 120.279 16.2141C119.847 16.9856 119.329 17.9498 118.725 19.107C118.163 20.2257 117.515 21.4795 116.781 22.8682C116.047 24.2569 115.313 25.6647 114.578 27.0919C113.844 28.5192 113.11 29.908 112.376 31.2582C111.685 32.6083 111.08 33.804 110.562 34.8455L109.59 36.6973C109.072 36.1186 108.489 35.6557 107.841 35.3085C107.236 34.9614 106.545 34.7492 105.768 34.6721C104.343 34.5564 102.961 34.7685 101.622 35.3085C100.326 35.81 99.1168 36.4851 97.9939 37.3337C96.871 38.1824 95.8561 39.1276 94.9491 40.1691C94.611 40.5574 94.3011 40.9312 94.0049 41.2981C93.9912 41.3078 93.9776 41.3161 93.9639 41.3262C92.7546 42.4448 91.3725 43.4284 89.8177 44.2771C88.3061 45.0871 86.8808 45.6465 85.5419 45.9551C86.1898 44.5664 86.6864 43.1199 87.0319 41.6154C87.4206 40.0724 87.5072 38.7223 87.2912 37.5651C87.0753 36.4464 86.5786 35.5399 85.8013 34.8455C85.0239 34.1126 83.8362 33.8234 82.2382 33.9777C81.2017 34.0934 80.2946 34.3636 79.5172 34.7879C78.7398 35.1737 78.0488 35.6363 77.4442 36.1763C76.9259 35.8291 76.5155 35.7328 76.2132 35.8871L76.1487 35.945C75.2849 36.4079 74.3562 37.0829 73.3629 37.9702C72.3695 38.8574 71.3546 39.8797 70.3181 41.0369C70.1123 41.2687 69.9081 41.5071 69.7041 41.7472C68.6105 42.6933 67.3854 43.5365 66.0287 44.2771C64.5171 45.0871 63.0918 45.6465 61.753 45.9551C62.4008 44.5664 62.8974 43.1199 63.2429 41.6154C63.6316 40.0724 63.7182 38.7223 63.5022 37.5651C63.2863 36.4464 62.7896 35.5399 62.0123 34.8455C61.2349 34.1126 60.0472 33.8234 58.4492 33.9777C57.4127 34.0934 56.5056 34.3636 55.7282 34.7879C54.9508 35.1737 54.2598 35.6363 53.6552 36.1763C53.1369 35.8291 52.7268 35.7328 52.4245 35.8871L52.3597 35.945C51.4959 36.4079 50.5672 37.0829 49.5739 37.9702C48.5805 38.8574 47.5656 39.8797 46.5291 41.0369C45.5358 42.1556 44.5641 43.3706 43.614 44.6822C43.5029 44.8355 43.3969 44.9888 43.2882 45.1421C40.4235 48.398 37.8199 51.0474 35.4853 53.0722C32.5053 55.6567 29.7628 57.4891 27.2579 58.5692L28.3592 56.2548C28.8343 55.1361 29.4175 53.7666 30.1085 52.1465C30.1804 51.9877 30.2585 51.8132 30.3308 51.6533C35.7766 48.3095 46.2306 41.1958 54.9602 31.1301C61.7117 23.3452 67.7746 13.4367 65.1415 4.76511C64.0719 1.24228 61.8303 -0.0084187 59.297 4.26055e-05ZM57.4762 9.6599C57.7893 9.6531 58.0928 9.6843 58.3834 9.75779C61.4828 10.5417 58.7644 19.8457 52.7961 27.2034C47.5066 33.7243 38.8029 40.767 33.4682 44.6033L35.0967 40.8635C35.7445 39.3591 36.4139 37.8739 37.1049 36.408C37.8391 34.9036 38.5518 33.4571 39.2428 32.0684C39.977 30.6411 40.6897 29.291 41.3807 28.018C42.0717 26.7065 42.7195 25.5104 43.3241 24.4303C43.451 24.215 43.5662 24.0154 43.6856 23.8101L43.7256 23.7725C43.7256 23.7725 45.4766 20.6978 48.1097 16.8437C50.4959 13.351 54.449 9.72556 57.4762 9.6599V9.6599ZM235.563 17.6577C235.572 17.6547 235.576 17.6556 235.576 17.6604C235.662 18.0847 235.447 18.7598 234.929 19.6856C234.453 20.6114 233.849 21.5179 233.114 22.4051L230.07 26.34H230.134C229.141 27.6515 228.148 28.9049 227.155 30.1008C226.204 31.258 225.233 32.4347 224.239 33.6305C225.449 31.2003 226.701 28.905 227.997 26.7448C229.292 24.5846 230.631 22.6561 232.013 20.9588C233.265 19.6473 234.173 18.7597 234.734 18.2968C235.225 17.8918 235.502 17.6788 235.563 17.6577L235.563 17.6577ZM146.382 30.307C146.568 30.3143 146.694 30.4192 146.758 30.6217C146.845 30.8532 146.931 31.1423 147.017 31.4895C147.19 32.4153 146.996 33.3605 146.434 34.3249C145.873 35.2893 145.182 36.2729 144.362 37.2758L144.167 36.4659C144.038 35.6559 143.994 34.8841 144.037 34.1511C144.124 33.4182 144.275 32.7818 144.491 32.2418C144.707 31.6632 144.966 31.2002 145.268 30.8531C145.571 30.5059 145.873 30.3324 146.175 30.3324C146.251 30.3132 146.32 30.3046 146.382 30.307V30.307ZM111.145 39.0117L111.339 39.3589L111.274 39.301L111.145 39.0117ZM178.51 39.0117L178.769 39.3589L178.704 39.301L178.51 39.0117ZM106.679 39.8145C106.817 39.8193 106.945 39.8409 107.064 39.8795C107.15 39.9567 107.193 40.1691 107.193 40.5163C107.193 40.8249 107.107 41.2105 106.934 41.6734C106.718 42.0977 106.502 42.5413 106.286 43.0042C106.113 43.4671 105.919 43.9494 105.703 44.4508C105.271 45.2609 104.688 46.1868 103.954 47.2283C103.263 48.2313 102.486 49.2725 101.622 50.3526C100.758 51.3941 99.8726 52.4164 98.9656 53.4194C98.0587 54.4223 97.1949 55.3095 96.3743 56.081C95.5537 56.8139 94.8197 57.4119 94.1719 57.8748C93.5673 58.2992 93.1352 58.4729 92.8761 58.3958C92.7897 58.3958 92.833 58.0869 93.0057 57.4697C93.2217 56.8525 93.5456 56.0617 93.9774 55.0974C94.4093 54.0944 94.9276 52.9951 95.5322 51.7993C96.1369 50.5649 96.8279 49.3305 97.6053 48.0961C98.3395 46.9003 99.16 45.7816 100.067 44.7401C100.974 43.66 101.859 42.7341 102.723 41.9626C103.63 41.1911 104.451 40.6124 105.185 40.2267C105.768 39.9374 106.266 39.8 106.679 39.8145V39.8145ZM174.072 39.8145C174.202 39.8193 174.321 39.8409 174.428 39.8795C174.688 40.111 174.623 40.8054 174.234 41.9626C174.105 42.2712 173.954 42.5991 173.781 42.9463C173.608 43.2934 173.457 43.6406 173.327 43.9878L173.263 44.0457C172.917 44.8172 172.377 45.7238 171.643 46.7653C170.952 47.8068 170.174 48.8678 169.311 49.9479C168.447 51.028 167.54 52.0886 166.59 53.1301C165.683 54.1716 164.798 55.0975 163.934 55.9076C163.113 56.7176 162.357 57.354 161.666 57.8169C161.018 58.2798 160.565 58.4729 160.306 58.3958C160.22 58.3958 160.263 58.0869 160.436 57.4697C160.652 56.8525 160.975 56.0617 161.407 55.0974C161.839 54.0944 162.358 52.9951 162.962 51.7993C163.567 50.5649 164.258 49.3305 165.035 48.0961C165.769 46.9003 166.59 45.7816 167.497 44.7401C168.404 43.66 169.289 42.7341 170.153 41.9626C171.06 41.1911 171.881 40.6124 172.615 40.2267C173.198 39.9374 173.684 39.8 174.072 39.8145V39.8145ZM58.3247 39.9964C58.4562 39.9813 58.5624 40.1547 58.6434 40.5163C58.7729 41.0563 58.7513 41.7314 58.5785 42.5415C58.4922 42.7344 58.341 43.0622 58.1251 43.5251C57.9523 43.9494 57.7366 44.4314 57.4775 44.9714C57.3048 44.74 57.132 44.3928 56.9592 43.9299C56.8729 43.2355 56.9374 42.5221 57.1534 41.7892C57.4125 41.0563 57.7148 40.5353 58.0603 40.2267C58.1574 40.082 58.2457 40.0054 58.3247 39.9964ZM82.1137 39.9964C82.2452 39.9813 82.3514 40.1547 82.4324 40.5163C82.5619 41.0563 82.5403 41.7314 82.3675 42.5415C82.2811 42.7344 82.13 43.0622 81.9141 43.5251C81.7413 43.9494 81.5256 44.4314 81.2665 44.9714C81.0938 44.74 80.921 44.3928 80.7482 43.9299C80.6619 43.2355 80.7264 42.5221 80.9424 41.7892C81.2015 41.0563 81.5038 40.5353 81.8493 40.2267C81.9464 40.082 82.0347 40.0054 82.1137 39.9964ZM51.6469 46.0709C51.9493 46.881 52.3597 47.6331 52.8779 48.3274C53.3962 49.0218 54.0223 49.6005 54.7565 50.0634C54.2383 50.9506 53.6767 51.8378 53.0721 52.725C52.4674 53.5736 51.8413 54.3644 51.1935 55.0974C49.8978 56.6404 48.6453 57.7784 47.436 58.5113C46.2699 59.2442 45.4494 59.6301 44.9743 59.6687C44.4992 59.3601 44.3914 58.7044 44.6505 57.7014C44.9528 56.6985 45.4495 55.5411 46.1405 54.2296C46.8747 52.8795 47.7168 51.4906 48.667 50.0634C49.6603 48.5975 50.6536 47.2667 51.6469 46.0709V46.0709ZM75.4359 46.0709C75.7382 46.881 76.1487 47.6331 76.6669 48.3274C77.1852 49.0218 77.8113 49.6005 78.5455 50.0634C78.0273 50.9506 77.4657 51.8378 76.8611 52.725C76.2564 53.5736 75.6303 54.3644 74.9825 55.0974C73.6868 56.6404 72.4342 57.7784 71.225 58.5113C70.0589 59.2442 69.2384 59.6301 68.7633 59.6687C68.2882 59.3601 68.1804 58.7044 68.4395 57.7014C68.7418 56.6985 69.2385 55.5411 69.9295 54.2296C70.6637 52.8795 71.5058 51.4906 72.456 50.0634C73.4493 48.5975 74.4426 47.2667 75.4359 46.0709V46.0709ZM23.7597 65.9177C23.9756 66.2263 24.17 66.5928 24.3428 67.0171C24.5155 67.48 24.6237 68.02 24.6669 68.6372C24.7533 69.293 24.6234 70.2576 24.2779 71.5305C23.9324 72.8035 23.4358 74.2113 22.788 75.7543C22.1401 77.3359 21.4062 78.9368 20.5856 80.557C19.7218 82.2157 18.858 83.7203 17.9942 85.0704C17.0873 86.4205 16.2019 87.5198 15.3381 88.3685C14.4311 89.2557 13.6323 89.6993 12.9412 89.6993C12.8549 89.6221 12.9627 89.1979 13.265 88.4264C13.5242 87.6549 13.9346 86.6516 14.496 85.4172C15.0143 84.2214 15.6404 82.8329 16.3746 81.2514C17.1088 79.6698 17.9077 78.0112 18.7715 76.2753C19.5921 74.5394 20.4342 72.784 21.298 71.0096C22.1618 69.2351 22.9823 67.5378 23.7597 65.9177V65.9177Z" fill="url(#paint0_linear)"/>
</g>
<defs>
<linearGradient id="paint0_linear" x1="248" y1="46.5" x2="0" y2="46.5" gradientUnits="userSpaceOnUse">
<stop stop-color="#F8A4D8"/>
<stop offset="1" stop-color="#6C63FF"/>
</linearGradient>
<clipPath id="clip0">
<rect width="248" height="93" fill="white"/>
</clipPath>
</defs>
</svg>
