<svg width="21" height="21" viewBox="0 0 21 21" fill="none" xmlns="http://www.w3.org/2000/svg">
<path d="M5.06445 16.2295C6.6582 17.792 8.54883 18.5732 10.7363 18.5732C12.9238 18.5732 14.7988 17.792 16.3613 16.2295C17.9551 14.6357 18.752 12.7451 18.752 10.5576C18.752 9.87012 18.6426 9.12012 18.4238 8.30762C17.7363 8.46387 16.9707 8.54199 16.127 8.54199C14.6895 8.54199 13.1738 8.13574 11.5801 7.32324C10.0176 6.47949 8.83008 5.47949 8.01758 4.32324C6.98633 6.82324 5.23633 8.62012 2.76758 9.71387C2.73633 9.90137 2.7207 10.1826 2.7207 10.5576C2.7207 12.7451 3.50195 14.6357 5.06445 16.2295ZM3.6582 3.52637C5.62695 1.55762 7.98633 0.573242 10.7363 0.573242C13.4863 0.573242 15.8301 1.55762 17.7676 3.52637C19.7363 5.46387 20.7207 7.80762 20.7207 10.5576C20.7207 13.3076 19.7363 15.667 17.7676 17.6357C15.8301 19.5732 13.4863 20.542 10.7363 20.542C7.98633 20.542 5.62695 19.5732 3.6582 17.6357C1.7207 15.667 0.751953 13.3076 0.751953 10.5576C0.751953 7.80762 1.7207 5.46387 3.6582 3.52637ZM12.8457 10.6982C13.0957 10.4482 13.3926 10.3232 13.7363 10.3232C14.0801 10.3232 14.377 10.4482 14.627 10.6982C14.877 10.917 15.002 11.1982 15.002 11.542C15.002 11.8857 14.877 12.1826 14.627 12.4326C14.377 12.6826 14.0801 12.8076 13.7363 12.8076C13.3926 12.8076 13.0957 12.6826 12.8457 12.4326C12.5957 12.1826 12.4707 11.8857 12.4707 11.542C12.4707 11.1982 12.5957 10.917 12.8457 10.6982ZM6.8457 10.6982C7.0957 10.4482 7.39258 10.3232 7.73633 10.3232C8.08008 10.3232 8.37695 10.4482 8.62695 10.6982C8.87695 10.917 9.00195 11.1982 9.00195 11.542C9.00195 11.8857 8.87695 12.1826 8.62695 12.4326C8.37695 12.6826 8.08008 12.8076 7.73633 12.8076C7.39258 12.8076 7.0957 12.6826 6.8457 12.4326C6.5957 12.1826 6.4707 11.8857 6.4707 11.542C6.4707 11.1982 6.5957 10.917 6.8457 10.6982Z" fill="#1F2041" fill-opacity="0.5"/>
</svg>
