<svg width="26" height="26" viewBox="0 0 26 26" fill="none" xmlns="http://www.w3.org/2000/svg">
<path d="M23 0.606445H3C1.61875 0.606445 0.5 1.7252 0.5 3.10645V23.1064C0.5 24.4877 1.61875 25.6064 3 25.6064H23C24.3813 25.6064 25.5 24.4877 25.5 23.1064V3.10645C25.5 1.7252 24.3813 0.606445 23 0.606445V0.606445ZM23 23.1064H3V3.10645H23V23.1064ZM20.5 5.60645H14.25C12.8687 5.60645 11.75 6.7252 11.75 8.10645V10.9502C11.0062 11.3814 10.5 12.1814 10.5 13.1064C10.5 14.4877 11.6187 15.6064 13 15.6064C14.3813 15.6064 15.5 14.4877 15.5 13.1064C15.5 12.1814 14.9938 11.3877 14.25 10.9502V8.10645H18V18.1064H8V8.10645H10.5V5.60645H5.5V20.6064H20.5V5.60645Z" fill="white"/>
</svg>
