<svg width="171" height="87" viewBox="0 0 171 87" fill="none" xmlns="http://www.w3.org/2000/svg">
<path fill-rule="evenodd" clip-rule="evenodd" d="M11.4319 0V3.7821V12.9929H0V16.2275V22.0575H17.6473L36.513 87H135.237L152.715 22.0575H171V12.9929H158.629V0H11.4319ZM19.0296 7.56422H151.031V12.1339H19.0296V7.56422ZM25.5566 22.0575H144.85L129.407 79.4358H42.2246L25.5566 22.0575Z" fill="white"/>
<path d="M96.1667 36.0405H72.8333C71.2219 36.0405 69.9167 37.3457 69.9167 38.9572V62.2905C69.9167 63.902 71.2219 65.2072 72.8333 65.2072H96.1667C97.7781 65.2072 99.0833 63.902 99.0833 62.2905V38.9572C99.0833 37.3457 97.7781 36.0405 96.1667 36.0405V36.0405ZM96.1667 62.2905H72.8333V38.9572H96.1667V62.2905ZM93.25 41.8739H85.9583C84.3469 41.8739 83.0417 43.1791 83.0417 44.7905V48.1082C82.1739 48.6114 81.5833 49.5447 81.5833 50.6239C81.5833 52.2353 82.8885 53.5405 84.5 53.5405C86.1114 53.5405 87.4167 52.2353 87.4167 50.6239C87.4167 49.5447 86.826 48.6187 85.9583 48.1082V44.7905H90.3333V56.4572H78.6667V44.7905H81.5833V41.8739H75.75V59.3739H93.25V41.8739Z" fill="white"/>
</svg>
